<mxfile host="app.diagrams.net" agent="Mozilla/5.0 (Windows NT 10.0; Win64; x64) AppleWebKit/537.36 (KHTML, like Gecko) Chrome/134.0.0.0 Safari/537.36" version="26.1.3">
  <diagram name="Page-1" id="7AugIxqeU6r5xMpqL_bq">
    <mxGraphModel dx="1437" dy="1936" grid="1" gridSize="10" guides="1" tooltips="1" connect="1" arrows="1" fold="1" page="1" pageScale="1" pageWidth="827" pageHeight="1169" math="0" shadow="0">
      <root>
        <mxCell id="0" />
        <mxCell id="1" parent="0" />
        <mxCell id="JEkoDhyaS5HV2s0BxQrl-1" value="End-user gestão de inventário&lt;div&gt;-Picagens&lt;/div&gt;&lt;div&gt;-Inserir produtos&lt;/div&gt;&lt;div&gt;-Gestão de life-cycle&lt;/div&gt;&lt;div&gt;&lt;br&gt;&lt;/div&gt;" style="verticalLabelPosition=bottom;verticalAlign=top;html=1;shadow=0;dashed=0;strokeWidth=1;shape=mxgraph.android.phone2;strokeColor=#c0c0c0;" vertex="1" parent="1">
          <mxGeometry x="80" y="-150" width="130" height="290" as="geometry" />
        </mxCell>
        <mxCell id="JEkoDhyaS5HV2s0BxQrl-2" value="BD SQL" style="shape=cylinder3;whiteSpace=wrap;html=1;boundedLbl=1;backgroundOutline=1;size=15;" vertex="1" parent="1">
          <mxGeometry x="680" y="-100" width="120" height="190" as="geometry" />
        </mxCell>
        <mxCell id="JEkoDhyaS5HV2s0BxQrl-4" value="API" style="rounded=1;whiteSpace=wrap;html=1;" vertex="1" parent="1">
          <mxGeometry x="390" y="-40" width="120" height="60" as="geometry" />
        </mxCell>
        <mxCell id="JEkoDhyaS5HV2s0BxQrl-5" value=".NET API" style="text;html=1;align=center;verticalAlign=middle;resizable=0;points=[];autosize=1;strokeColor=none;fillColor=none;" vertex="1" parent="1">
          <mxGeometry x="415" y="18" width="70" height="30" as="geometry" />
        </mxCell>
        <mxCell id="JEkoDhyaS5HV2s0BxQrl-6" style="edgeStyle=orthogonalEdgeStyle;rounded=0;orthogonalLoop=1;jettySize=auto;html=1;entryX=-0.029;entryY=0.594;entryDx=0;entryDy=0;entryPerimeter=0;" edge="1" parent="1" source="JEkoDhyaS5HV2s0BxQrl-1" target="JEkoDhyaS5HV2s0BxQrl-4">
          <mxGeometry relative="1" as="geometry" />
        </mxCell>
        <mxCell id="JEkoDhyaS5HV2s0BxQrl-7" value="Request HTTP" style="edgeLabel;html=1;align=center;verticalAlign=middle;resizable=0;points=[];" vertex="1" connectable="0" parent="JEkoDhyaS5HV2s0BxQrl-6">
          <mxGeometry x="-0.2389" relative="1" as="geometry">
            <mxPoint x="12" y="15" as="offset" />
          </mxGeometry>
        </mxCell>
        <mxCell id="JEkoDhyaS5HV2s0BxQrl-8" style="edgeStyle=orthogonalEdgeStyle;rounded=0;orthogonalLoop=1;jettySize=auto;html=1;exitX=0;exitY=0.25;exitDx=0;exitDy=0;entryX=0.989;entryY=0.43;entryDx=0;entryDy=0;entryPerimeter=0;" edge="1" parent="1" source="JEkoDhyaS5HV2s0BxQrl-4" target="JEkoDhyaS5HV2s0BxQrl-1">
          <mxGeometry relative="1" as="geometry" />
        </mxCell>
        <mxCell id="JEkoDhyaS5HV2s0BxQrl-9" value="Response HTTP (JSON)" style="edgeLabel;html=1;align=center;verticalAlign=middle;resizable=0;points=[];" vertex="1" connectable="0" parent="JEkoDhyaS5HV2s0BxQrl-8">
          <mxGeometry x="0.0619" y="1" relative="1" as="geometry">
            <mxPoint x="6" y="-16" as="offset" />
          </mxGeometry>
        </mxCell>
        <mxCell id="JEkoDhyaS5HV2s0BxQrl-10" style="edgeStyle=orthogonalEdgeStyle;rounded=0;orthogonalLoop=1;jettySize=auto;html=1;entryX=-0.018;entryY=0.476;entryDx=0;entryDy=0;entryPerimeter=0;" edge="1" parent="1" source="JEkoDhyaS5HV2s0BxQrl-4" target="JEkoDhyaS5HV2s0BxQrl-2">
          <mxGeometry relative="1" as="geometry" />
        </mxCell>
        <mxCell id="JEkoDhyaS5HV2s0BxQrl-17" value="User" style="rounded=1;whiteSpace=wrap;html=1;" vertex="1" parent="1">
          <mxGeometry x="420" y="90" width="100" height="40" as="geometry" />
        </mxCell>
        <mxCell id="JEkoDhyaS5HV2s0BxQrl-18" value="Roles" style="rounded=1;whiteSpace=wrap;html=1;" vertex="1" parent="1">
          <mxGeometry x="420" y="140" width="100" height="40" as="geometry" />
        </mxCell>
        <mxCell id="JEkoDhyaS5HV2s0BxQrl-19" value="Products" style="rounded=1;whiteSpace=wrap;html=1;" vertex="1" parent="1">
          <mxGeometry x="420" y="190" width="100" height="40" as="geometry" />
        </mxCell>
        <mxCell id="JEkoDhyaS5HV2s0BxQrl-20" value="http://localhost/api/User" style="text;html=1;align=center;verticalAlign=middle;resizable=0;points=[];autosize=1;strokeColor=none;fillColor=none;" vertex="1" parent="1">
          <mxGeometry x="275" y="90" width="150" height="30" as="geometry" />
        </mxCell>
        <mxCell id="JEkoDhyaS5HV2s0BxQrl-21" value="&lt;span style=&quot;color: rgb(0, 0, 0); font-family: Helvetica; font-size: 12px; font-style: normal; font-variant-ligatures: normal; font-variant-caps: normal; font-weight: 400; letter-spacing: normal; orphans: 2; text-align: center; text-indent: 0px; text-transform: none; widows: 2; word-spacing: 0px; -webkit-text-stroke-width: 0px; white-space: nowrap; background-color: rgb(251, 251, 251); text-decoration-thickness: initial; text-decoration-style: initial; text-decoration-color: initial; float: none; display: inline !important;&quot;&gt;http://localhost/api/Roles&lt;/span&gt;" style="text;whiteSpace=wrap;html=1;" vertex="1" parent="1">
          <mxGeometry x="270" y="140" width="160" height="40" as="geometry" />
        </mxCell>
        <mxCell id="JEkoDhyaS5HV2s0BxQrl-22" value="&lt;span style=&quot;color: rgb(0, 0, 0); font-family: Helvetica; font-size: 12px; font-style: normal; font-variant-ligatures: normal; font-variant-caps: normal; font-weight: 400; letter-spacing: normal; orphans: 2; text-align: center; text-indent: 0px; text-transform: none; widows: 2; word-spacing: 0px; -webkit-text-stroke-width: 0px; white-space: nowrap; background-color: rgb(251, 251, 251); text-decoration-thickness: initial; text-decoration-style: initial; text-decoration-color: initial; float: none; display: inline !important;&quot;&gt;http://localhost/api/Products&lt;/span&gt;" style="text;whiteSpace=wrap;html=1;" vertex="1" parent="1">
          <mxGeometry x="260" y="190" width="160" height="40" as="geometry" />
        </mxCell>
      </root>
    </mxGraphModel>
  </diagram>
</mxfile>
